<?xml version="1.0" standalone="no"?>
<!DOCTYPE svg PUBLIC "-//W3C//DTD SVG 20010904//EN"
 "http://www.w3.org/TR/2001/REC-SVG-20010904/DTD/svg10.dtd">
<svg version="1.0" xmlns="http://www.w3.org/2000/svg"
 width="213.000000pt" height="240.000000pt" viewBox="0 0 213.000000 240.000000"
 preserveAspectRatio="xMidYMid meet">

<g transform="translate(0.000000,240.000000) scale(0.100000,-0.100000)"
fill="#000000" stroke="none">
<path d="M625 2090 c-60 -16 -153 -46 -205 -67 -89 -36 -97 -41 -132 -93 -20
-30 -64 -109 -97 -175 -95 -191 -150 -368 -177 -565 -15 -119 -19 -376 -5
-413 10 -27 128 -106 250 -168 96 -50 280 -121 292 -114 13 9 109 168 109 182
0 7 -5 13 -11 13 -15 0 -159 71 -159 79 0 3 8 11 19 18 15 10 31 7 87 -16 295
-119 626 -120 929 -2 77 30 80 30 98 12 18 -17 16 -19 -57 -54 -41 -21 -80
-37 -85 -37 -6 0 -11 -5 -11 -12 0 -13 39 -82 82 -145 l28 -42 88 31 c110 38
263 115 369 184 72 47 83 57 89 90 13 71 -3 392 -26 499 -45 213 -139 446
-249 616 l-49 77 -103 40 c-91 35 -199 66 -306 87 -30 6 -32 4 -56 -47 l-25
-53 -248 1 -248 1 -25 52 c-14 29 -32 51 -41 51 -8 -1 -64 -14 -125 -30z m189
-688 c22 -15 48 -45 60 -66 87 -169 -58 -373 -219 -311 -130 49 -174 229 -83
340 65 78 162 94 242 37z m657 26 c128 -44 179 -207 103 -325 -83 -127 -247
-117 -322 21 -11 20 -17 55 -17 101 0 58 4 78 27 116 48 82 128 115 209 87z"/>
</g>
</svg>
