<?xml version="1.0" standalone="no"?>
<!DOCTYPE svg PUBLIC "-//W3C//DTD SVG 20010904//EN"
 "http://www.w3.org/TR/2001/REC-SVG-20010904/DTD/svg10.dtd">
<svg version="1.0" xmlns="http://www.w3.org/2000/svg"
 width="512.000000pt" height="512.000000pt" viewBox="0 0 512.000000 512.000000"
 preserveAspectRatio="xMidYMid meet">

<g transform="translate(0.000000,512.000000) scale(0.100000,-0.100000)"
fill="#000000" stroke="none">
<path d="M2325 5049 c-806 -70 -1544 -535 -1966 -1240 -230 -386 -343 -777
-356 -1241 -21 -729 237 -1369 761 -1893 203 -203 404 -348 650 -469 156 -77
336 -146 380 -146 47 0 99 31 118 70 16 30 18 67 18 282 0 136 -3 249 -8 252
-4 2 -30 0 -57 -5 -79 -15 -310 -12 -407 5 -102 19 -173 48 -244 102 -75 57
-96 87 -162 226 -90 191 -156 278 -267 351 -67 44 -113 102 -99 125 32 51 186
32 297 -35 91 -55 142 -107 213 -215 75 -113 140 -175 232 -220 65 -32 69 -33
202 -33 112 0 147 4 205 22 39 13 76 26 82 31 7 4 22 42 32 84 23 91 56 159
106 217 19 24 34 45 32 47 -2 2 -49 10 -104 19 -286 42 -506 129 -682 268
-168 134 -291 367 -346 657 -23 120 -31 366 -16 470 26 173 90 328 193 463
l59 77 -22 68 c-44 139 -36 359 20 527 l26 80 57 3 c31 2 85 -4 120 -13 120
-31 318 -122 459 -209 62 -39 74 -43 102 -35 92 27 302 60 445 70 125 9 199 9
324 0 143 -10 353 -43 445 -70 27 -8 39 -5 79 21 156 99 358 194 474 224 32 8
87 14 121 12 l62 -3 23 -67 c12 -38 30 -105 39 -150 23 -112 16 -296 -14 -390
l-22 -68 56 -72 c154 -202 214 -410 202 -702 -10 -239 -53 -428 -138 -599 -52
-105 -91 -160 -166 -233 -173 -171 -431 -284 -751 -329 -52 -7 -96 -16 -99
-19 -3 -3 10 -23 30 -45 42 -46 77 -112 103 -191 16 -49 18 -109 23 -515 7
-514 6 -512 76 -541 52 -21 83 -17 196 25 765 289 1349 926 1568 1710 111 397
119 895 22 1296 -175 721 -667 1340 -1335 1679 -426 216 -901 307 -1391 265z"/>
</g>
</svg>
