<?xml version="1.0" standalone="no"?>
<!DOCTYPE svg PUBLIC "-//W3C//DTD SVG 20010904//EN"
 "http://www.w3.org/TR/2001/REC-SVG-20010904/DTD/svg10.dtd">
<svg version="1.0" xmlns="http://www.w3.org/2000/svg"
 width="225.000000pt" height="225.000000pt" viewBox="0 0 225.000000 225.000000"
 preserveAspectRatio="xMidYMid meet">

<g transform="translate(0.000000,225.000000) scale(0.100000,-0.100000)"
fill="#000000" stroke="none">
<path d="M470 1828 c-201 -11 -229 -16 -294 -59 -72 -48 -109 -118 -136 -264
-17 -88 -25 -595 -11 -752 27 -325 94 -415 327 -442 199 -22 760 -33 1129 -21
193 6 388 15 435 21 262 31 320 165 320 746 0 426 -29 593 -118 682 -63 63
-118 77 -346 91 -211 12 -1056 11 -1306 -2z m727 -579 c159 -82 291 -153 295
-157 6 -6 -568 -312 -585 -312 -4 0 -7 139 -7 310 0 171 2 310 5 310 3 0 134
-68 292 -151z"/>
</g>
</svg>
